<?xml version="1.0" standalone="no"?>
<!DOCTYPE svg PUBLIC "-//W3C//DTD SVG 20010904//EN"
 "http://www.w3.org/TR/2001/REC-SVG-20010904/DTD/svg10.dtd">
<svg version="1.0" xmlns="http://www.w3.org/2000/svg"
 width="594.000000pt" height="329.000000pt" viewBox="0 0 594.000000 329.000000"
 preserveAspectRatio="xMidYMid meet">

<g transform="translate(0.000000,329.000000) scale(0.100000,-0.100000)"
fill="#000000" stroke="none">
<path d="M0 2155 c0 -820 3 -1135 11 -1135 6 0 39 29 73 65 57 60 67 66 118
74 30 5 70 16 89 24 19 7 40 12 47 10 17 -6 15 -34 -4 -61 -9 -13 -14 -25 -13
-26 2 -1 31 -19 64 -39 92 -55 109 -101 65 -172 -11 -18 -20 -42 -20 -53 0
-14 -11 -27 -30 -37 -24 -12 -30 -22 -30 -48 0 -17 8 -46 18 -62 23 -37 56
-134 48 -142 -3 -3 -12 2 -21 11 -42 41 -80 -3 -104 -120 -10 -49 -25 -105
-34 -124 -8 -19 -18 -55 -22 -80 -10 -63 -20 -73 -55 -55 -34 17 -44 44 -36
89 5 26 -1 47 -31 102 -47 85 -64 127 -93 224 -12 41 -25 84 -30 95 -5 12 -9
-131 -9 -337 l-1 -358 270 0 c196 0 270 3 270 11 0 9 -22 10 -74 6 -57 -4 -76
-2 -80 8 -5 13 3 47 29 135 7 25 16 83 20 130 4 47 10 119 14 160 l6 75 25
-40 c34 -53 102 -209 138 -318 27 -81 46 -117 56 -106 2 2 38 61 79 131 81
136 154 238 239 334 121 135 121 136 121 227 -1 62 -6 94 -23 131 -35 77 -6
153 68 177 71 23 235 155 377 306 61 63 70 69 91 55 13 -8 51 -83 83 -164 13
-31 30 -63 39 -71 10 -7 57 -22 107 -32 54 -11 115 -32 155 -53 36 -19 112
-59 169 -88 58 -30 113 -62 123 -71 10 -9 56 -67 101 -127 45 -61 94 -124 109
-140 43 -48 53 -101 32 -177 -9 -35 -22 -99 -29 -142 -13 -85 -17 -92 -40 -84
-11 5 -15 22 -15 72 0 66 -18 119 -42 127 -26 9 -87 -10 -114 -35 -16 -15 -25
-27 -20 -27 5 0 0 -10 -12 -22 -25 -27 -16 -45 38 -75 19 -11 36 -26 37 -34 6
-57 27 -166 34 -173 4 -5 5 -31 2 -57 l-6 -49 1782 0 1781 0 0 651 c0 507 -3
653 -12 662 -7 7 -31 18 -53 26 -22 7 -73 29 -112 47 l-73 35 -1 177 c-1 245
1 283 14 312 12 25 13 25 125 21 l112 -3 0 326 0 326 -62 1 c-61 0 -90 3 -135
14 -41 10 -47 51 -51 363 l-3 292 125 0 c119 0 126 1 126 20 0 20 -7 20 -2970
20 l-2970 0 0 -1135z m5044 1087 c8 -14 16 -121 10 -137 -9 -21 -14 -20 -85
23 -35 22 -110 54 -166 71 -57 18 -103 37 -103 42 0 11 337 12 344 1z m-974
-128 c0 -11 -5 -14 -16 -10 -11 4 -15 2 -11 -8 6 -14 -81 -103 -95 -98 -7 2
-12 -20 -10 -39 1 -4 -14 -23 -33 -42 -19 -20 -35 -43 -35 -51 0 -8 -5 -18
-11 -22 -9 -5 -10 1 -5 20 4 15 2 26 -4 26 -5 0 -10 20 -10 45 0 25 5 45 10
45 15 0 12 68 -2 73 -7 2 6 7 30 11 31 6 42 12 42 26 0 14 5 17 21 13 13 -4
25 0 30 9 12 22 99 24 99 2z m-1767 -332 c23 -25 48 -130 41 -169 -14 -74 -63
-67 -117 16 -20 32 -37 64 -37 73 0 25 59 98 79 98 10 0 25 -8 34 -18z m2585
-159 c6 -16 13 -42 16 -59 6 -38 73 -180 116 -247 19 -30 42 -52 60 -59 38
-13 73 -72 90 -153 18 -90 19 -90 33 -76 7 6 17 26 23 43 12 35 22 42 44 28
12 -7 12 -12 -4 -29 -18 -20 -18 -22 -1 -67 12 -32 16 -61 12 -94 -4 -29 -1
-52 6 -59 8 -8 7 -18 -5 -39 -9 -15 -19 -41 -22 -58 -8 -37 3 -92 14 -74 15
24 27 0 39 -73 15 -90 -4 -198 -44 -259 -28 -41 -26 -41 -49 -32 -22 8 -20 49
4 126 11 34 20 78 20 96 l0 32 -20 -20 c-11 -11 -20 -24 -20 -29 0 -5 -7 -14
-15 -21 -13 -11 -19 -9 -38 7 -25 24 -74 42 -63 24 4 -7 -1 -11 -13 -11 -12 0
-20 3 -20 8 4 23 -2 52 -10 48 -11 -7 -70 65 -93 113 -14 29 -17 54 -12 131 6
113 18 157 45 165 23 8 39 43 39 87 0 23 -13 43 -55 86 -31 32 -58 67 -61 79
-10 37 -95 93 -151 100 -66 7 -247 -13 -284 -33 -34 -17 -43 -15 -33 10 3 9
17 16 29 16 13 0 27 5 30 10 3 6 21 10 40 10 19 0 60 7 92 16 32 8 88 15 125
15 37 0 70 3 73 8 7 13 -51 31 -101 31 -24 0 -44 5 -44 10 0 11 6 14 55 25
l30 7 -22 15 c-23 16 -31 43 -13 43 6 0 10 13 10 28 0 33 29 64 80 86 49 21
56 20 68 -11z m-3799 -67 c9 -11 5 -16 -20 -25 -40 -14 -66 -14 -74 -1 -20 32
69 56 94 26z m51 -76 c26 16 64 -2 111 -53 56 -61 90 -160 87 -253 -1 -41 5
-75 20 -114 25 -61 30 -167 11 -235 -15 -52 -64 -98 -128 -119 -55 -18 -72
-14 -129 32 -21 16 -49 94 -33 89 4 -1 29 8 57 20 27 12 57 24 67 27 46 14 -1
69 -75 86 -60 15 -59 36 2 33 27 -1 47 -8 52 -18 15 -25 46 0 58 46 13 49 8
56 -52 79 -43 16 -74 55 -59 75 5 5 11 25 14 42 6 28 2 36 -23 55 -17 12 -30
25 -30 29 0 15 33 40 46 35 14 -5 44 19 44 36 0 6 -21 8 -55 4 -30 -3 -62 -3
-70 0 -33 13 -7 88 34 102 14 5 28 5 31 1 3 -4 12 -4 20 1z m-437 -47 c4 -3 2
-12 -4 -20 -17 -20 4 -39 54 -48 23 -4 45 -7 49 -7 4 1 19 -3 33 -8 31 -12 33
-40 4 -66 l-21 -19 29 -22 c23 -19 26 -26 17 -40 -15 -25 -67 -54 -100 -56
-19 -2 -30 -9 -34 -23 -8 -32 -66 -25 -100 13 -15 15 -42 37 -61 47 -19 11
-42 28 -52 37 -17 15 -17 18 -2 33 9 9 27 16 41 16 30 0 31 17 2 47 -26 28
-20 35 49 57 38 13 50 21 48 34 -1 9 0 20 2 25 5 9 37 9 46 0z m3597 -143 c15
-27 7 -36 -35 -44 -26 -5 -39 -15 -48 -34 -17 -40 -27 -43 -68 -21 -21 10 -47
19 -59 19 -27 0 -25 12 5 40 14 13 25 28 25 35 0 6 15 9 39 7 22 -2 48 1 58 7
30 17 71 13 83 -9z m-275 -20 c-3 -5 -15 -10 -26 -10 -11 0 -17 5 -14 10 3 6
15 10 26 10 11 0 17 -4 14 -10z m1349 -6 c9 -3 16 -10 16 -14 0 -10 -38 -1
-46 11 -6 10 7 12 30 3z m-1354 -71 c0 -5 -18 -18 -40 -30 -30 -16 -40 -18
-40 -8 0 8 10 21 22 29 23 17 58 21 58 9z m-3530 -35 c0 -4 -6 -5 -14 -2 -8 3
-12 12 -9 21 5 12 7 12 14 1 5 -7 9 -16 9 -20z m4873 -45 c23 -35 31 -63 28
-103 -1 -9 -7 -6 -18 10 -9 14 -25 31 -35 38 -14 10 -16 17 -8 27 6 7 8 25 4
39 -9 36 -1 33 29 -11z m-4252 -59 c11 -14 9 -15 -16 -12 -16 1 -30 9 -33 16
-6 18 33 15 49 -4z m3614 -4 c9 -27 -1 -40 -31 -40 -26 0 -40 20 -30 45 8 23
53 19 61 -5z m183 -22 c5 -25 -38 -35 -55 -12 -20 28 -16 36 19 32 21 -2 34
-9 36 -20z m-4120 -36 c22 -34 29 -55 25 -71 -4 -16 -1 -26 11 -33 9 -5 16
-17 16 -28 0 -26 -39 -14 -50 15 -11 28 -26 39 -35 25 -3 -5 -21 -10 -38 -10
-18 0 -51 -10 -74 -22 l-42 -22 -25 23 c-20 19 -31 22 -60 17 -28 -5 -36 -4
-36 8 0 16 34 31 49 22 5 -3 22 1 37 9 16 8 48 15 72 15 38 0 42 2 42 24 0 14
-5 28 -12 32 -9 6 52 38 83 43 3 1 20 -21 37 -47z m3367 7 c9 -14 -29 -49 -55
-49 -27 0 -26 25 2 44 26 19 44 20 53 5z m1245 -44 c0 -8 -4 -17 -10 -20 -6
-4 -10 5 -10 20 0 15 4 24 10 20 6 -3 10 -12 10 -20z m-882 -70 c16 -13 41
-29 56 -34 25 -10 36 -31 16 -31 -5 0 -10 -4 -10 -10 0 -15 47 -80 75 -101 34
-28 33 -49 -4 -49 -28 0 -54 21 -57 44 -3 32 -5 36 -14 36 -17 0 -60 -51 -60
-72 0 -27 -27 -34 -50 -13 -18 16 -20 32 -20 130 0 61 3 115 7 118 12 13 31 7
61 -18z m862 -22 c3 -12 17 -31 33 -43 42 -33 31 -80 -19 -80 -28 0 -39 16
-24 35 9 11 9 21 -1 45 -8 16 -17 30 -21 30 -5 0 -8 9 -8 21 0 28 32 21 40 -8z
m-4976 2 c7 -19 1 -35 -41 -103 -18 -31 -33 -67 -34 -81 0 -25 -1 -25 -9 -4
-5 12 -19 24 -32 28 -32 10 -38 23 -38 77 0 40 4 50 28 66 35 25 50 30 88 31
20 1 34 -5 38 -14z m59 -78 c-2 -15 -4 -39 -5 -53 -4 -40 23 -52 59 -26 23 16
45 21 94 21 35 0 78 3 94 5 17 3 56 3 88 0 47 -5 60 -10 67 -28 4 -11 20 -34
34 -51 14 -16 25 -34 23 -40 -7 -22 -44 -15 -75 14 -18 18 -38 28 -46 25 -8
-3 -31 2 -51 12 -19 9 -38 14 -41 11 -3 -2 -22 -1 -42 4 -40 10 -162 -8 -162
-23 0 -8 -60 -38 -75 -38 -3 0 -5 11 -5 25 0 14 -4 25 -10 25 -30 0 -16 89 23
138 16 20 32 8 30 -21z m546 -16 c10 -11 21 -18 25 -14 3 3 6 -1 6 -11 0 -9
-4 -15 -9 -12 -5 3 -11 -1 -15 -9 -3 -8 -12 -15 -21 -15 -8 0 -15 -6 -15 -14
0 -23 -32 -28 -51 -9 -30 30 -34 68 -10 92 25 25 64 22 90 -8z m51 19 c0 -5
-5 -10 -11 -10 -5 0 -7 5 -4 10 3 6 8 10 11 10 2 0 4 -4 4 -10z m10 -24 c0 -3
-4 -8 -10 -11 -5 -3 -10 -1 -10 4 0 6 5 11 10 11 6 0 10 -2 10 -4z m500 -6 c0
-5 -4 -10 -10 -10 -5 0 -10 5 -10 10 0 6 5 10 10 10 6 0 10 -4 10 -10z m2535
-32 c42 -28 44 -45 8 -59 -40 -15 -53 -5 -53 41 0 22 2 40 5 40 3 0 21 -10 40
-22z m-2529 -22 c11 -44 -16 -63 -36 -25 -9 15 -8 24 1 35 17 20 28 17 35 -10z
m-119 -55 c7 -49 -11 -91 -39 -91 -24 0 -25 53 -2 110 19 48 33 42 41 -19z
m2939 -8 c5 -26 3 -32 -15 -38 -31 -10 -44 3 -37 38 7 32 26 51 38 39 4 -4 10
-22 14 -39z m-4061 -31 c-15 -10 -19 -126 -6 -151 10 -17 9 -21 -4 -21 -9 0
-13 5 -10 10 4 6 2 17 -5 24 -17 21 -30 75 -19 81 5 4 9 15 9 26 0 34 20 63
33 50 8 -8 8 -14 2 -19z m68 4 c3 -8 -5 -24 -19 -37 -27 -26 -28 -24 -13 20
12 33 24 40 32 17z m5037 -16 c0 -11 11 -27 24 -36 29 -18 54 -83 38 -93 -14
-9 -29 -52 -25 -72 3 -11 11 -15 29 -11 23 4 25 2 22 -23 -4 -34 -23 -44 -31
-15 -8 30 -47 27 -47 -4 0 -14 -4 -28 -10 -31 -5 -3 -10 -22 -10 -41 0 -19 -4
-34 -10 -34 -5 0 -10 -13 -10 -29 0 -17 -4 -33 -10 -36 -5 -3 -10 -19 -10 -35
0 -16 -4 -32 -10 -35 -5 -3 -10 -17 -10 -30 0 -13 -4 -27 -10 -30 -5 -3 -10
-19 -10 -35 0 -16 -4 -32 -10 -35 -5 -3 -10 -16 -10 -29 0 -12 -7 -31 -15 -42
-8 -10 -15 -29 -15 -41 0 -12 -4 -25 -10 -28 -5 -3 -10 -14 -10 -24 0 -11 -9
-29 -20 -42 -17 -21 -19 -22 -20 -6 0 10 7 32 16 48 8 17 13 37 10 44 -3 8 2
19 10 25 8 7 14 22 14 34 0 12 6 31 14 41 8 11 11 25 9 33 -3 7 -1 23 4 35 17
37 33 92 33 115 0 11 5 24 11 28 6 3 9 18 6 32 -3 17 1 30 10 37 19 14 9 52
-16 60 -24 7 -47 55 -27 55 17 0 28 27 21 51 -4 11 -2 19 4 19 6 0 11 13 11
29 0 17 5 33 10 36 6 3 10 17 10 30 0 13 5 27 10 30 6 4 8 16 5 26 -7 20 9 49
26 49 5 0 9 -9 9 -20z m-4000 -81 c0 -5 4 -8 9 -5 5 3 20 -5 35 -19 27 -25 27
-44 -2 -78 -20 -22 -32 -6 -32 42 0 19 -7 43 -17 53 -9 11 -11 18 -5 18 7 0
12 -5 12 -11z m4093 -56 c2 -5 7 -20 11 -35 4 -20 3 -28 -7 -28 -22 0 -34 20
-29 46 4 23 17 32 25 17z m-3978 -33 c3 -6 -1 -13 -10 -16 -19 -8 -30 0 -20
15 8 14 22 14 30 1z m4192 -126 c25 -23 25 -24 4 -24 -11 0 -21 6 -21 14 0 8
-11 17 -25 20 -14 4 -25 11 -25 17 0 16 37 1 67 -27z m-5184 -1 c4 -3 -2 -13
-14 -21 -24 -17 -37 -9 -19 13 14 16 23 19 33 8z m4785 -51 c2 -15 -2 -22 -12
-22 -11 0 -16 9 -16 26 0 31 23 28 28 -4z m-70 -14 c-4 -29 -38 -38 -38 -10 0
22 8 32 27 32 9 0 13 -8 11 -22z m557 12 c3 -5 -1 -10 -9 -10 -9 0 -16 5 -16
10 0 6 4 10 9 10 6 0 13 -4 16 -10z m-351 -26 c4 -11 1 -14 -11 -12 -9 2 -18
9 -21 16 -6 18 25 15 32 -4z m-154 -35 c10 -18 9 -20 -7 -17 -10 2 -19 11 -21
21 -5 24 15 21 28 -4z m-90 -53 c-6 -22 -16 -49 -22 -60 -5 -10 -16 -42 -23
-70 -7 -28 -21 -64 -29 -81 -9 -16 -16 -35 -16 -41 0 -6 -6 -17 -14 -24 -8 -6
-16 -24 -18 -38 -3 -31 -21 -36 -26 -8 -2 10 3 23 12 28 9 5 16 16 16 26 0 19
23 86 52 151 11 25 22 60 25 78 3 18 10 36 14 39 5 3 9 13 9 23 0 9 6 23 12
29 19 19 23 -3 8 -52z m60 -12 c0 -8 -5 -12 -10 -9 -6 4 -8 11 -5 16 9 14 15
11 15 -7z m140 -30 c0 -8 -4 -12 -10 -9 -5 3 -10 10 -10 16 0 5 5 9 10 9 6 0
10 -7 10 -16z m-160 -45 c0 -18 -2 -19 -15 -9 -15 12 -12 30 6 30 5 0 9 -10 9
-21z m127 -105 c-9 -9 -28 6 -21 18 4 6 10 6 17 -1 6 -6 8 -13 4 -17z m73 -40
c0 -17 -22 -14 -28 4 -2 7 3 12 12 12 9 0 16 -7 16 -16z m-237 -201 c-3 -7 -9
-13 -14 -13 -11 0 -12 34 -2 43 9 10 22 -13 16 -30z m-1088 -101 c-8 -9 -35
20 -28 31 4 6 11 3 19 -8 8 -10 12 -21 9 -23z"/>
<path d="M5422 1519 c1 -12 9 -24 16 -27 9 -3 13 3 10 19 -1 12 -9 24 -16 27
-9 3 -13 -3 -10 -19z"/>
<path d="M5414 1455 c5 -20 3 -25 -13 -25 -16 0 -18 -4 -11 -35 6 -27 5 -35
-6 -35 -9 0 -14 -11 -14 -29 0 -24 3 -28 20 -24 11 3 20 13 20 22 0 10 6 26
14 36 9 13 11 27 6 40 -5 12 -4 28 1 36 14 22 11 39 -7 39 -12 0 -15 -6 -10
-25z"/>
<path d="M223 1062 c-61 -52 -82 -127 -39 -138 37 -9 65 4 73 34 3 15 14 38
25 51 10 13 18 37 18 52 0 23 -4 29 -22 29 -13 0 -37 -13 -55 -28z"/>
<path d="M1170 980 c0 -5 5 -10 10 -10 6 0 10 5 10 10 0 6 -4 10 -10 10 -5 0
-10 -4 -10 -10z"/>
<path d="M1017 388 c-90 -93 -162 -178 -205 -243 -37 -55 -73 -105 -82 -112
-8 -7 -10 -13 -5 -13 6 -1 1 -5 -10 -10 -13 -6 7 -9 63 -9 52 -1 82 3 82 10 0
6 23 44 50 85 28 41 50 77 50 79 0 12 105 175 155 240 57 75 75 115 53 115 -7
0 -75 -64 -151 -142z"/>
<path d="M2090 197 c-8 -7 -23 -29 -34 -49 -18 -35 -18 -39 -2 -73 29 -61 52
-75 122 -75 59 0 62 1 74 30 7 16 10 36 7 44 -3 8 -1 17 6 20 7 2 5 5 -4 5 -9
1 -19 7 -22 15 -6 15 -111 96 -124 96 -4 0 -15 -6 -23 -13z"/>
</g>
</svg>
